# xmcd CD database file
# Copyright (C) 1993-1998 Ti Kan
#
# Track frame offsets:
#  150
#  18917
#  41520
#  56597
#  75247
#  85550
#  101100
#  118622
#  135447
#  154817
#  168550
#
# Disc length: 2280 seconds
#
# Revision: 1
# Processed by: cddbd v1.4b41PL1 Copyright (c) Steve Scherf et al.
# Submitted via: CDWizzard Release:4.35
#
DISCID=7a08e60b
DTITLE=Rodney Friend - So Much To Celebrate
DYEAR=1900
DGENRE=
TTITLE0=I've Got A Feelin'
TTITLE1=No Other Name
TTITLE2=So Much To Celebrate
TTITLE3=Rise Again
TTITLE4=I Know (Interlude)
TTITLE5=Goin' Up
TTITLE6=A Prayer For The Children
TTITLE7=Don't Compromise
TTITLE8=Touched By The Master's Hand
TTITLE9=Face The Music
TTITLE10=I Know (Epilogue)
EXTD=
EXTT0=
EXTT1=
EXTT2=
EXTT3=
EXTT4=
EXTT5=
EXTT6=
EXTT7=
EXTT8=
EXTT9=
EXTT10=
PLAYORDER=
